<mxfile host="app.diagrams.net" agent="Mozilla/5.0 (Windows NT 10.0; Win64; x64) AppleWebKit/537.36 (KHTML, like Gecko) Chrome/129.0.0.0 Safari/537.36 Edg/129.0.0.0" version="24.7.17">
  <diagram name="第 1 页" id="YMTtu6OVb8P07vDBpbzH">
    <mxGraphModel dx="1722" dy="951" grid="1" gridSize="10" guides="1" tooltips="1" connect="1" arrows="1" fold="1" page="1" pageScale="1" pageWidth="827" pageHeight="1169" math="0" shadow="0">
      <root>
        <mxCell id="0" />
        <mxCell id="1" parent="0" />
        <mxCell id="4GeJjRAJmCebwMetrkeh-1" value="点击“体拔模”" style="strokeWidth=2;html=1;shape=mxgraph.flowchart.start_1;whiteSpace=wrap;" vertex="1" parent="1">
          <mxGeometry x="285.55" y="110" width="95" height="50" as="geometry" />
        </mxCell>
        <mxCell id="4GeJjRAJmCebwMetrkeh-2" value="选择“拔模对象”" style="rounded=1;whiteSpace=wrap;html=1;absoluteArcSize=1;arcSize=14;strokeWidth=2;" vertex="1" parent="1">
          <mxGeometry x="287.68" y="195" width="90.74" height="40" as="geometry" />
        </mxCell>
        <mxCell id="4GeJjRAJmCebwMetrkeh-3" value="选择“分型体”" style="rounded=1;whiteSpace=wrap;html=1;absoluteArcSize=1;arcSize=14;strokeWidth=2;" vertex="1" parent="1">
          <mxGeometry x="287.31" y="270" width="90.74" height="40" as="geometry" />
        </mxCell>
        <mxCell id="4GeJjRAJmCebwMetrkeh-4" value="选择“位于分型体之上的参考边”" style="rounded=1;whiteSpace=wrap;html=1;absoluteArcSize=1;arcSize=14;strokeWidth=2;" vertex="1" parent="1">
          <mxGeometry x="180" y="460" width="98.05" height="50" as="geometry" />
        </mxCell>
        <mxCell id="4GeJjRAJmCebwMetrkeh-5" style="edgeStyle=orthogonalEdgeStyle;rounded=0;orthogonalLoop=1;jettySize=auto;html=1;exitX=0.5;exitY=1;exitDx=0;exitDy=0;entryX=0.5;entryY=0;entryDx=0;entryDy=0;" edge="1" parent="1" target="4GeJjRAJmCebwMetrkeh-18">
          <mxGeometry relative="1" as="geometry">
            <mxPoint x="466.57" y="546" as="sourcePoint" />
            <mxPoint x="368.04500000000013" y="657.1199999999999" as="targetPoint" />
            <Array as="points">
              <mxPoint x="466.05" y="620" />
              <mxPoint x="354.05" y="620" />
            </Array>
          </mxGeometry>
        </mxCell>
        <mxCell id="4GeJjRAJmCebwMetrkeh-6" value="选择“参考面”" style="rounded=1;whiteSpace=wrap;html=1;absoluteArcSize=1;arcSize=14;strokeWidth=2;" vertex="1" parent="1">
          <mxGeometry x="418.05" y="496" width="105" height="50" as="geometry" />
        </mxCell>
        <mxCell id="4GeJjRAJmCebwMetrkeh-7" value="" style="endArrow=classic;html=1;rounded=0;exitX=0.5;exitY=1;exitDx=0;exitDy=0;exitPerimeter=0;entryX=0.5;entryY=0;entryDx=0;entryDy=0;" edge="1" parent="1" source="4GeJjRAJmCebwMetrkeh-1" target="4GeJjRAJmCebwMetrkeh-2">
          <mxGeometry width="50" height="50" relative="1" as="geometry">
            <mxPoint x="98.05000000000001" y="260" as="sourcePoint" />
            <mxPoint x="148.05" y="210" as="targetPoint" />
          </mxGeometry>
        </mxCell>
        <mxCell id="4GeJjRAJmCebwMetrkeh-8" value="" style="endArrow=classic;html=1;rounded=0;exitX=0.5;exitY=1;exitDx=0;exitDy=0;exitPerimeter=0;entryX=0.5;entryY=0;entryDx=0;entryDy=0;" edge="1" parent="1">
          <mxGeometry width="50" height="50" relative="1" as="geometry">
            <mxPoint x="332.44" y="235" as="sourcePoint" />
            <mxPoint x="332.44" y="270" as="targetPoint" />
          </mxGeometry>
        </mxCell>
        <mxCell id="4GeJjRAJmCebwMetrkeh-9" value="&lt;div&gt;&lt;span style=&quot;background-color: initial;&quot;&gt;选择“参考实体&lt;/span&gt;&lt;br&gt;&lt;/div&gt;&lt;div&gt;类型”&lt;/div&gt;" style="strokeWidth=2;html=1;shape=mxgraph.flowchart.decision;whiteSpace=wrap;" vertex="1" parent="1">
          <mxGeometry x="280" y="346" width="105.37" height="100" as="geometry" />
        </mxCell>
        <mxCell id="4GeJjRAJmCebwMetrkeh-10" value="" style="endArrow=classic;html=1;rounded=0;exitX=0.5;exitY=1;exitDx=0;exitDy=0;exitPerimeter=0;entryX=0.5;entryY=0;entryDx=0;entryDy=0;" edge="1" parent="1">
          <mxGeometry width="50" height="50" relative="1" as="geometry">
            <mxPoint x="332.44" y="310" as="sourcePoint" />
            <mxPoint x="332.44" y="345" as="targetPoint" />
          </mxGeometry>
        </mxCell>
        <mxCell id="4GeJjRAJmCebwMetrkeh-11" value="" style="endArrow=classic;html=1;rounded=0;exitX=0;exitY=0.5;exitDx=0;exitDy=0;exitPerimeter=0;" edge="1" parent="1" source="4GeJjRAJmCebwMetrkeh-9">
          <mxGeometry width="50" height="50" relative="1" as="geometry">
            <mxPoint x="271.05" y="400" as="sourcePoint" />
            <mxPoint x="228.05" y="460" as="targetPoint" />
            <Array as="points">
              <mxPoint x="228.05" y="396" />
              <mxPoint x="228.05" y="460" />
            </Array>
          </mxGeometry>
        </mxCell>
        <mxCell id="4GeJjRAJmCebwMetrkeh-12" value="边" style="edgeLabel;html=1;align=center;verticalAlign=middle;resizable=0;points=[];" vertex="1" connectable="0" parent="4GeJjRAJmCebwMetrkeh-11">
          <mxGeometry x="0.1935" y="2" relative="1" as="geometry">
            <mxPoint as="offset" />
          </mxGeometry>
        </mxCell>
        <mxCell id="4GeJjRAJmCebwMetrkeh-13" value="" style="endArrow=classic;html=1;rounded=0;exitX=1;exitY=0.5;exitDx=0;exitDy=0;exitPerimeter=0;" edge="1" parent="1" source="4GeJjRAJmCebwMetrkeh-9">
          <mxGeometry width="50" height="50" relative="1" as="geometry">
            <mxPoint x="388.05" y="400" as="sourcePoint" />
            <mxPoint x="466.4099999999999" y="496" as="targetPoint" />
            <Array as="points">
              <mxPoint x="466.72999999999996" y="398" />
              <mxPoint x="466.4099999999999" y="496" />
            </Array>
          </mxGeometry>
        </mxCell>
        <mxCell id="4GeJjRAJmCebwMetrkeh-14" value="面" style="edgeLabel;html=1;align=center;verticalAlign=middle;resizable=0;points=[];" vertex="1" connectable="0" parent="4GeJjRAJmCebwMetrkeh-13">
          <mxGeometry x="0.2133" relative="1" as="geometry">
            <mxPoint as="offset" />
          </mxGeometry>
        </mxCell>
        <mxCell id="4GeJjRAJmCebwMetrkeh-15" style="edgeStyle=orthogonalEdgeStyle;rounded=0;orthogonalLoop=1;jettySize=auto;html=1;exitX=0.5;exitY=1;exitDx=0;exitDy=0;entryX=0.5;entryY=0;entryDx=0;entryDy=0;" edge="1" parent="1" source="4GeJjRAJmCebwMetrkeh-16" target="4GeJjRAJmCebwMetrkeh-18">
          <mxGeometry relative="1" as="geometry">
            <Array as="points">
              <mxPoint x="229" y="620" />
              <mxPoint x="354" y="620" />
            </Array>
          </mxGeometry>
        </mxCell>
        <mxCell id="4GeJjRAJmCebwMetrkeh-16" value="选择“位于分型体之上的参考边”" style="rounded=1;whiteSpace=wrap;html=1;absoluteArcSize=1;arcSize=14;strokeWidth=2;" vertex="1" parent="1">
          <mxGeometry x="180" y="546" width="98.05" height="50" as="geometry" />
        </mxCell>
        <mxCell id="4GeJjRAJmCebwMetrkeh-17" value="" style="endArrow=classic;html=1;rounded=0;exitX=0.5;exitY=1;exitDx=0;exitDy=0;exitPerimeter=0;entryX=0.5;entryY=0;entryDx=0;entryDy=0;" edge="1" parent="1">
          <mxGeometry width="50" height="50" relative="1" as="geometry">
            <mxPoint x="228.05" y="510" as="sourcePoint" />
            <mxPoint x="228.05" y="545" as="targetPoint" />
          </mxGeometry>
        </mxCell>
        <mxCell id="4GeJjRAJmCebwMetrkeh-18" value="选择“脱模方向”" style="rounded=1;whiteSpace=wrap;html=1;absoluteArcSize=1;arcSize=14;strokeWidth=2;" vertex="1" parent="1">
          <mxGeometry x="305" y="657.1199999999999" width="98.05" height="50" as="geometry" />
        </mxCell>
        <mxCell id="4GeJjRAJmCebwMetrkeh-19" value="编辑并输入“设置选项”各项内容" style="rounded=1;whiteSpace=wrap;html=1;absoluteArcSize=1;arcSize=14;strokeWidth=2;" vertex="1" parent="1">
          <mxGeometry x="305" y="749" width="98.05" height="50" as="geometry" />
        </mxCell>
        <mxCell id="4GeJjRAJmCebwMetrkeh-20" value="" style="endArrow=classic;html=1;rounded=0;exitX=0.5;exitY=1;exitDx=0;exitDy=0;entryX=0.5;entryY=0;entryDx=0;entryDy=0;" edge="1" parent="1" source="4GeJjRAJmCebwMetrkeh-18" target="4GeJjRAJmCebwMetrkeh-19">
          <mxGeometry width="50" height="50" relative="1" as="geometry">
            <mxPoint x="390" y="820" as="sourcePoint" />
            <mxPoint x="440" y="770" as="targetPoint" />
          </mxGeometry>
        </mxCell>
        <mxCell id="4GeJjRAJmCebwMetrkeh-21" value="展示体拔模效果" style="strokeWidth=2;html=1;shape=mxgraph.flowchart.start_1;whiteSpace=wrap;" vertex="1" parent="1">
          <mxGeometry x="306.53000000000003" y="982" width="95" height="50" as="geometry" />
        </mxCell>
        <mxCell id="4GeJjRAJmCebwMetrkeh-22" value="" style="endArrow=classic;html=1;rounded=0;exitX=0.5;exitY=1;exitDx=0;exitDy=0;entryX=0.5;entryY=0;entryDx=0;entryDy=0;" edge="1" parent="1">
          <mxGeometry width="50" height="50" relative="1" as="geometry">
            <mxPoint x="353.79" y="940" as="sourcePoint" />
            <mxPoint x="353.79" y="982" as="targetPoint" />
          </mxGeometry>
        </mxCell>
        <mxCell id="4GeJjRAJmCebwMetrkeh-23" value="成功" style="edgeLabel;html=1;align=center;verticalAlign=middle;resizable=0;points=[];" vertex="1" connectable="0" parent="4GeJjRAJmCebwMetrkeh-22">
          <mxGeometry x="-0.3926" y="-1" relative="1" as="geometry">
            <mxPoint as="offset" />
          </mxGeometry>
        </mxCell>
        <mxCell id="4GeJjRAJmCebwMetrkeh-24" value="&lt;div&gt;拔模结果&lt;/div&gt;" style="strokeWidth=2;html=1;shape=mxgraph.flowchart.decision;whiteSpace=wrap;" vertex="1" parent="1">
          <mxGeometry x="301.34000000000003" y="840" width="105.37" height="100" as="geometry" />
        </mxCell>
        <mxCell id="4GeJjRAJmCebwMetrkeh-25" value="" style="endArrow=classic;html=1;rounded=0;exitX=0.5;exitY=1;exitDx=0;exitDy=0;entryX=0.5;entryY=0;entryDx=0;entryDy=0;" edge="1" parent="1">
          <mxGeometry width="50" height="50" relative="1" as="geometry">
            <mxPoint x="353.78" y="799" as="sourcePoint" />
            <mxPoint x="353.78" y="841" as="targetPoint" />
          </mxGeometry>
        </mxCell>
        <mxCell id="4GeJjRAJmCebwMetrkeh-26" value="弹窗显示错误消息" style="rounded=1;whiteSpace=wrap;html=1;absoluteArcSize=1;arcSize=14;strokeWidth=2;" vertex="1" parent="1">
          <mxGeometry x="580" y="690" width="98.05" height="50" as="geometry" />
        </mxCell>
        <mxCell id="4GeJjRAJmCebwMetrkeh-27" value="" style="endArrow=classic;html=1;rounded=0;exitX=1;exitY=0.5;exitDx=0;exitDy=0;exitPerimeter=0;entryX=0.5;entryY=1;entryDx=0;entryDy=0;" edge="1" parent="1" source="4GeJjRAJmCebwMetrkeh-24" target="4GeJjRAJmCebwMetrkeh-26">
          <mxGeometry width="50" height="50" relative="1" as="geometry">
            <mxPoint x="390" y="820" as="sourcePoint" />
            <mxPoint x="440" y="770" as="targetPoint" />
            <Array as="points">
              <mxPoint x="630" y="890" />
            </Array>
          </mxGeometry>
        </mxCell>
        <mxCell id="4GeJjRAJmCebwMetrkeh-28" value="失败" style="edgeLabel;html=1;align=center;verticalAlign=middle;resizable=0;points=[];" vertex="1" connectable="0" parent="4GeJjRAJmCebwMetrkeh-27">
          <mxGeometry x="-0.2869" y="2" relative="1" as="geometry">
            <mxPoint as="offset" />
          </mxGeometry>
        </mxCell>
        <mxCell id="4GeJjRAJmCebwMetrkeh-29" value="" style="endArrow=classic;html=1;rounded=0;exitX=0.5;exitY=0;exitDx=0;exitDy=0;entryX=1;entryY=0.5;entryDx=0;entryDy=0;" edge="1" parent="1" source="4GeJjRAJmCebwMetrkeh-26" target="4GeJjRAJmCebwMetrkeh-2">
          <mxGeometry width="50" height="50" relative="1" as="geometry">
            <mxPoint x="390" y="770" as="sourcePoint" />
            <mxPoint x="540" y="470" as="targetPoint" />
            <Array as="points">
              <mxPoint x="630" y="215" />
            </Array>
          </mxGeometry>
        </mxCell>
        <mxCell id="4GeJjRAJmCebwMetrkeh-30" value="关闭弹窗，重新选定参数" style="edgeLabel;html=1;align=center;verticalAlign=middle;resizable=0;points=[];" vertex="1" connectable="0" parent="4GeJjRAJmCebwMetrkeh-29">
          <mxGeometry x="-0.2087" relative="1" as="geometry">
            <mxPoint as="offset" />
          </mxGeometry>
        </mxCell>
      </root>
    </mxGraphModel>
  </diagram>
</mxfile>
